<?xml version="1.0" ?><!DOCTYPE svg  PUBLIC '-//W3C//DTD SVG 1.1//EN'  'http://www.w3.org/Graphics/SVG/1.1/DTD/svg11.dtd'><svg enable-background="new 0 0 150 150" width="50px" height="50px" id="Layer_1" version="1.1" viewBox="0 0 150 150"  xml:space="preserve" xmlns="http://www.w3.org/2000/svg" xmlns:xlink="http://www.w3.org/1999/xlink"><g><circle cx="75.012" cy="74.996" fill="#A92923" opacity="0.1" r="75"/><path d="M75.012-0.004v150c41.421,0,74.999-33.578,74.999-75S116.433-0.004,75.012-0.004z" fill="#A92923" opacity="0.1"/><circle cx="75.012" cy="74.996" fill="#A92923" r="65.488"/><path d="M75.012,9.508v130.977c36.167,0,65.487-29.32,65.487-65.488S111.179,9.508,75.012,9.508z" fill="#99241D"/><g><path d="M9.597,72.068c-0.042,0.971-0.073,1.945-0.073,2.928c0,36.168,29.319,65.488,65.488,65.488v-5.854    C39.824,134.631,11.13,106.879,9.597,72.068z" fill="#99241D"/><path d="M140.426,72.068c-1.532,34.811-30.228,62.562-65.414,62.562v5.854c36.167,0,65.487-29.32,65.487-65.488    C140.499,74.014,140.469,73.039,140.426,72.068z" fill="#881D16"/></g></g><path d="M93.73,75.956c0,6.202-1.976,11.841-5.177,15.989c-4.032-4.289-10.344-7.804-18.357-7.356v7.301  c0,0,5.432,0.211,9.154,6.607c-1.392,0.409-2.844,0.632-4.34,0.632c-10.34,0-18.723-10.371-18.723-23.173c0-1.64,0-7.926,0-9.574  c0-12.789,8.383-23.165,18.723-23.165c10.341,0,18.72,10.376,18.72,23.165C93.73,68.03,93.73,74.316,93.73,75.956L93.73,75.956z   M93.99,102.655c10.436-6.554,17.388-18.25,17.388-31.605c0-20.518-16.412-37.159-36.648-37.159  c-20.244,0-36.649,16.642-36.649,37.159c0,20.513,16.405,37.15,36.649,37.15c2.979,0,5.869-0.376,8.643-1.053  c3.477,6.329,8.778,10.809,20.026,8.664v-6.293C103.398,109.519,96.182,107.705,93.99,102.655L93.99,102.655z" fill="#FFFFFF"/></svg>
